<?xml version="1.0" encoding="UTF-8" standalone="no"?>
<svg
   xmlns:dc="http://purl.org/dc/elements/1.1/"
   xmlns:cc="http://creativecommons.org/ns#"
   xmlns:rdf="http://www.w3.org/1999/02/22-rdf-syntax-ns#"
   xmlns:svg="http://www.w3.org/2000/svg"
   xmlns="http://www.w3.org/2000/svg"
   xmlns:sodipodi="http://sodipodi.sourceforge.net/DTD/sodipodi-0.dtd"
   xmlns:inkscape="http://www.inkscape.org/namespaces/inkscape"
   inkscape:version="1.0beta2 (2b71d25, 2019-12-03)"
   sodipodi:docname="kb5.svg"
   id="svg2"
   viewBox="0 0 450 150"
   version="1.2"
   width="450"
   height="150">
  <sodipodi:namedview
     inkscape:current-layer="svg2"
     inkscape:window-maximized="0"
     inkscape:window-y="23"
     inkscape:window-x="1680"
     inkscape:cy="75"
     inkscape:cx="228.6533"
     inkscape:zoom="2.0149341"
     showgrid="false"
     id="namedview148"
     inkscape:window-height="1845"
     inkscape:window-width="1680"
     inkscape:pageshadow="2"
     inkscape:pageopacity="0"
     guidetolerance="10"
     gridtolerance="10"
     objecttolerance="10"
     borderopacity="1"
     inkscape:document-rotation="0"
     bordercolor="#666666"
     pagecolor="#ffffff" />
  <metadata
     id="metadata1933">
    <rdf:RDF>
      <cc:Work
         rdf:about="">
        <dc:format>image/svg+xml</dc:format>
        <dc:type
           rdf:resource="http://purl.org/dc/dcmitype/StillImage" />
        <dc:title></dc:title>
      </cc:Work>
    </rdf:RDF>
  </metadata>
  <defs
     id="defs4" />
  <rect
     height="21.02235"
     x="10.689532"
     y="10.677522"
     width="21.976622"
     ry="3.3635225"
     id="rect1865"
     style="fill:#ff0000;stroke:none;stroke-width:1.36697" />
  <rect
     height="21.02235"
     x="37.356644"
     y="10.677522"
     width="21.976622"
     ry="3.3635225"
     id="rect1191"
     style="fill:#ff0000;stroke:none;stroke-width:1.36697" />
  <rect
     height="21.02235"
     x="66.064354"
     y="10.677522"
     width="21.976622"
     ry="3.3635225"
     id="rect1193"
     style="fill:#ff0000;stroke:none;stroke-width:1.36697" />
  <rect
     height="21.02235"
     x="93.765747"
     y="10.677522"
     width="21.976622"
     ry="3.3635225"
     id="rect1195"
     style="fill:#ff0000;stroke:none;stroke-width:1.36697" />
  <rect
     height="21.02235"
     x="123.49371"
     y="10.677522"
     width="21.976622"
     ry="3.3635225"
     id="rect1197"
     style="fill:#ff0000;stroke:none;stroke-width:1.36697" />
  <rect
     height="21.02235"
     x="150.16083"
     y="10.677522"
     width="21.976622"
     ry="3.3635225"
     id="rect1199"
     style="fill:#ff0000;stroke:none;stroke-width:1.36697" />
  <rect
     height="21.02235"
     x="180.93707"
     y="10.677522"
     width="21.976622"
     ry="3.3635225"
     id="rect1201"
     style="fill:#ff0000;stroke:none;stroke-width:1.36697" />
  <rect
     height="21.02235"
     x="209.64473"
     y="10.677522"
     width="21.976622"
     ry="3.3635225"
     id="rect1203"
     style="fill:#ff0000;stroke:none;stroke-width:1.36697" />
  <rect
     height="21.02235"
     x="240.42097"
     y="10.677522"
     width="21.976622"
     ry="3.3635225"
     id="rect1205"
     style="fill:#ff0000;stroke:none;stroke-width:1.36697" />
  <rect
     height="21.02235"
     x="269.12863"
     y="10.677522"
     width="21.976622"
     ry="3.3635225"
     id="rect1207"
     style="fill:#ff0000;stroke:none;stroke-width:1.36697" />
  <rect
     height="21.02235"
     x="299.90488"
     y="10.677522"
     width="21.976622"
     ry="3.3635225"
     id="rect1209"
     style="fill:#ff0000;stroke:none;stroke-width:1.36697" />
  <rect
     height="21.02235"
     x="328.61255"
     y="10.677522"
     width="21.976622"
     ry="3.3635225"
     id="rect1211"
     style="fill:#ff0000;stroke:none;stroke-width:1.36697" />
  <rect
     height="21.02235"
     x="359.38879"
     y="10.677522"
     width="21.976622"
     ry="3.3635225"
     id="rect1213"
     style="fill:#ff0000;stroke:none;stroke-width:1.36697" />
  <rect
     height="21.02235"
     x="389.13071"
     y="10.677522"
     width="50.179768"
     ry="3.3635225"
     id="rect1215"
     style="fill:#000000;stroke:none;stroke-width:1.36697" />
  <rect
     height="21.02235"
     x="10.73146"
     y="37.41671"
     width="37.360538"
     ry="3.3635225"
     id="rect1217"
     style="fill:#ff0000;stroke:none;stroke-width:1.36697" />
  <rect
     height="21.02235"
     x="53.150051"
     y="37.41671"
     width="21.976622"
     ry="3.3635225"
     id="rect1219"
     style="fill:#ff0000;stroke:none;stroke-width:1.36697" />
  <rect
     height="21.02235"
     x="81.857758"
     y="37.41671"
     width="21.976622"
     ry="3.3635225"
     id="rect1221"
     style="fill:#ff0000;stroke:none;stroke-width:1.36697" />
  <rect
     height="21.02235"
     x="109.55916"
     y="37.41671"
     width="21.976622"
     ry="3.3635225"
     id="rect1223"
     style="fill:#ff0000;stroke:none;stroke-width:1.36697" />
  <rect
     height="21.02235"
     x="139.30112"
     y="37.41671"
     width="21.976622"
     ry="3.3635225"
     id="rect1225"
     style="fill:#ff0000;stroke:none;stroke-width:1.36697" />
  <rect
     height="21.02235"
     x="165.96823"
     y="37.41671"
     width="21.976622"
     ry="3.3635225"
     id="rect1227"
     style="fill:#ff0000;stroke:none;stroke-width:1.36697" />
  <rect
     height="21.02235"
     x="196.73048"
     y="37.41671"
     width="21.976622"
     ry="3.3635225"
     id="rect1229"
     style="fill:#ff0000;stroke:none;stroke-width:1.36697" />
  <rect
     height="21.02235"
     x="225.43819"
     y="37.41671"
     width="21.976622"
     ry="3.3635225"
     id="rect1231"
     style="fill:#ff0000;stroke:none;stroke-width:1.36697" />
  <rect
     height="21.02235"
     x="256.21439"
     y="37.41671"
     width="21.976622"
     ry="3.3635225"
     id="rect1233"
     style="fill:#ff0000;stroke:none;stroke-width:1.36697" />
  <rect
     height="21.02235"
     x="284.92206"
     y="37.41671"
     width="21.976622"
     ry="3.3635225"
     id="rect1235"
     style="fill:#ff0000;stroke:none;stroke-width:1.36697" />
  <rect
     height="21.02235"
     x="315.6983"
     y="37.41671"
     width="21.976622"
     ry="3.3635225"
     id="rect1237"
     style="fill:#000000;stroke:none;stroke-width:1.36697" />
  <rect
     height="21.02235"
     x="344.40594"
     y="37.41671"
     width="21.976622"
     ry="3.3635225"
     id="rect1239"
     style="fill:#000000;stroke:none;stroke-width:1.36697" />
  <rect
     height="21.02235"
     x="375.18219"
     y="37.41671"
     width="21.976622"
     ry="3.3635225"
     id="rect1241"
     style="fill:#000000;stroke:none;stroke-width:1.36697" />
  <rect
     height="21.022348"
     x="405.2876"
     y="37.41671"
     width="34.022896"
     ry="3.3635225"
     id="rect1243"
     style="fill:#000000;stroke:none;stroke-width:1.36697" />
  <rect
     height="21.02235"
     x="10.773387"
     y="64.155899"
     width="42.17823"
     ry="3.3635225"
     id="rect1245"
     style="fill:#ff0000;stroke:none;stroke-width:1.36697" />
  <rect
     height="21.02235"
     x="59.691078"
     y="64.155899"
     width="21.976622"
     ry="3.3635225"
     id="rect1247"
     style="fill:#ff0000;stroke:none;stroke-width:1.36697" />
  <rect
     height="21.02235"
     x="88.426727"
     y="64.155899"
     width="21.976622"
     ry="3.3635225"
     id="rect1249"
     style="fill:#ff0000;stroke:none;stroke-width:1.36697" />
  <rect
     height="21.02235"
     x="116.61726"
     y="64.155899"
     width="21.976622"
     ry="3.3635225"
     id="rect1251"
     style="fill:#ff0000;stroke:none;stroke-width:1.36697" />
  <rect
     height="21.02235"
     x="144.83578"
     y="64.155899"
     width="21.976622"
     ry="3.3635225"
     id="rect1253"
     style="fill:#ff0000;stroke:none;stroke-width:1.36697" />
  <rect
     height="21.02235"
     x="173.5435"
     y="64.155899"
     width="21.976622"
     ry="3.3635225"
     id="rect1255"
     style="fill:#ff0000;stroke:none;stroke-width:1.36697" />
  <rect
     height="21.02235"
     x="203.28545"
     y="64.155899"
     width="21.976622"
     ry="3.3635225"
     id="rect1257"
     style="fill:#ff0000;stroke:none;stroke-width:1.36697" />
  <rect
     height="21.02235"
     x="233.0274"
     y="64.155899"
     width="21.976622"
     ry="3.3635225"
     id="rect1259"
     style="fill:#000000;stroke:none;stroke-width:1.36697" />
  <rect
     height="21.02235"
     x="262.76935"
     y="64.155899"
     width="21.976622"
     ry="3.3635225"
     id="rect1261"
     style="fill:#000000;stroke:none;stroke-width:1.36697" />
  <rect
     height="21.02235"
     x="291.49103"
     y="64.155899"
     width="21.976622"
     ry="3.3635225"
     id="rect1263"
     style="fill:#000000;stroke:none;stroke-width:1.36697" />
  <rect
     height="21.02235"
     x="320.19876"
     y="64.155899"
     width="21.976622"
     ry="3.3635225"
     id="rect1265"
     style="fill:#000000;stroke:none;stroke-width:1.36697" />
  <rect
     height="21.02235"
     x="350.97491"
     y="64.155899"
     width="21.976622"
     ry="3.3635225"
     id="rect1267"
     style="fill:#000000;stroke:none;stroke-width:1.36697" />
  <rect
     height="21.022348"
     x="381.73718"
     y="64.155899"
     width="57.573322"
     ry="3.3635225"
     id="rect1269"
     style="fill:#000000;stroke:none;stroke-width:1.36697" />
  <rect
     height="21.02235"
     x="10.829263"
     y="90.895088"
     width="54.610313"
     ry="3.3635225"
     id="rect1271"
     style="fill:#ff0000;stroke:none;stroke-width:1.36697" />
  <rect
     height="21.02235"
     x="71.654945"
     y="90.895088"
     width="21.976622"
     ry="3.3635225"
     id="rect1273"
     style="fill:#ff0000;stroke:none;stroke-width:1.36697" />
  <rect
     height="21.02235"
     x="100.39059"
     y="90.895088"
     width="21.976622"
     ry="3.3635225"
     id="rect1275"
     style="fill:#ff0000;stroke:none;stroke-width:1.36697" />
  <rect
     height="21.02235"
     x="128.56718"
     y="90.895088"
     width="21.976622"
     ry="3.3635225"
     id="rect1277"
     style="fill:#ff0000;stroke:none;stroke-width:1.36697" />
  <rect
     height="21.02235"
     x="156.78571"
     y="90.895088"
     width="21.976622"
     ry="3.3635225"
     id="rect1279"
     style="fill:#000000;stroke:none;stroke-width:1.36697" />
  <rect
     height="21.02235"
     x="185.50737"
     y="90.895088"
     width="21.976622"
     ry="3.3635225"
     id="rect1281"
     style="fill:#000000;stroke:none;stroke-width:1.36697" />
  <rect
     height="21.02235"
     x="215.24931"
     y="90.895088"
     width="21.976622"
     ry="3.3635225"
     id="rect1283"
     style="fill:#000000;stroke:none;stroke-width:1.36697" />
  <rect
     height="21.02235"
     x="244.99127"
     y="90.895088"
     width="21.976622"
     ry="3.3635225"
     id="rect1285"
     style="fill:#000000;stroke:none;stroke-width:1.36697" />
  <rect
     height="21.02235"
     x="274.73322"
     y="90.895088"
     width="21.976622"
     ry="3.3635225"
     id="rect1287"
     style="fill:#000000;stroke:none;stroke-width:1.36697" />
  <rect
     height="21.02235"
     x="303.4549"
     y="90.895088"
     width="21.976622"
     ry="3.3635225"
     id="rect1289"
     style="fill:#000000;stroke:none;stroke-width:1.36697" />
  <rect
     height="21.02235"
     x="332.16263"
     y="90.895088"
     width="24.047935"
     ry="3.3635225"
     id="rect1291"
     style="fill:#000000;stroke:none;stroke-width:1.36697" />
  <rect
     height="21.022348"
     x="366.04163"
     y="90.895088"
     width="73.268883"
     ry="3.3635225"
     id="rect1293"
     style="fill:#000000;stroke:none;stroke-width:1.36697" />
  <rect
     height="21.02235"
     x="10.87119"
     y="117.63427"
     width="36.480019"
     ry="3.3635225"
     id="rect1295"
     style="fill:#ff0000;stroke:none;stroke-width:1.36697" />
  <rect
     height="21.02235"
     x="52.01796"
     y="117.63427"
     width="27.674835"
     ry="3.3635225"
     id="rect1297"
     style="fill:#ff0000;stroke:none;stroke-width:1.36697" />
  <rect
     height="21.02235"
     x="85.924919"
     y="117.63427"
     width="27.888676"
     ry="3.3635225"
     id="rect1299"
     style="fill:#000000;stroke:none;stroke-width:1.36697" />
  <rect
     height="21.693314"
     x="123.31201"
     y="117.63427"
     width="197.38472"
     ry="3.3635225"
     id="rect1301"
     style="fill:#000000;stroke:none;stroke-width:1.36697" />
  <rect
     height="21.02235"
     x="328.17331"
     y="117.592"
     width="27.156307"
     ry="3.3635225"
     id="rect1303"
     style="fill:#000000;stroke:none;stroke-width:1.36697" />
  <rect
     height="21.02235"
     x="364.14886"
     y="117.592"
     width="28.710491"
     ry="3.3635225"
     id="rect1305"
     style="fill:#000000;stroke:none;stroke-width:1.36697" />
  <rect
     height="21.022348"
     x="400.82312"
     y="117.592"
     width="38.487366"
     ry="3.3635225"
     id="rect1307"
     style="fill:#000000;stroke:none;stroke-width:1.36697" />
  <path
     inkscape:connector-curvature="0"
     id="path1311"
     d="M 13.894521,0.80986925 C 6.5745442,0.80605776 0.545696,6.5188967 0.5427128,13.532594 L 0.48670824,136.59581 c -0.003281,7.01417 6.02009736,12.7313 13.33987576,12.73511 l 422.341566,0.18237 c 7.31987,0.004 13.28617,-5.70913 13.28916,-12.72368 l 0.056,-123.063211 C 449.51727,6.7122246 443.55535,0.99509774 436.23507,0.99223909 L 13.953171,0.48721781 Z m -0.0025,5.23430745 422.341569,0.1823985 c 4.37257,0.00191 7.81985,3.3078894 7.81797,7.4976608 l -0.0574,123.063214 c -0.002,4.18996 -3.45205,7.49327 -7.82473,7.49146 L 13.827863,144.09654 c -4.3724766,-0.002 -7.8197631,-3.3078 -7.8178737,-7.49776 L 6.0660379,13.535567 C 6.0680267,9.3457963 9.5182963,6.0426712 13.890772,6.0443863 Z"
     style="fill:#000000;stroke:none;stroke-width:0.973414" />
</svg>
